<?xml version="1.0" encoding="utf-8"?>
<!-- Generator: Adobe Illustrator 25.3.1, SVG Export Plug-In . SVG Version: 6.00 Build 0)  -->
<svg version="1.1" id="Layer_1" xmlns="http://www.w3.org/2000/svg" xmlns:xlink="http://www.w3.org/1999/xlink" x="0px" y="0px"
	 viewBox="0 0 403.8 403.8" style="enable-background:new 0 0 403.8 403.8;" xml:space="preserve">
<style type="text/css">
	.st0{fill-rule:evenodd;clip-rule:evenodd;fill:#500eec;}
</style>
<path class="st0" d="M202.9,40.3L202.9,40.3c-89.7,0-163.1,73.4-163.1,163.1v0c0,89.7,73.4,163.1,163.1,163.1h0
	c89.7,0,163.1-73.4,163.1-163.1v0C366,113.7,292.6,40.3,202.9,40.3z M202.9,119.7c8.8,0,16,7.1,16,16c0,8.9-7.1,16-16,16
	c-8.9,0-16-7.2-16-16S194.1,119.7,202.9,119.7z M213.4,169.9c0,5.7-4.7,10.5-10.5,10.5c-5.8,0-10.5-4.7-10.5-10.5
	c0-5.8,4.7-10.5,10.5-10.5C208.7,159.5,213.4,164.2,213.4,169.9z M278,178.6L278,178.6c-0.1,1.5-0.9,3-2.2,3.7l-68.2,39.4
	c-2.9,1.7-6.5,1.7-9.4,0l-50.5-29.1c-0.6-0.4-1.4,0.1-1.4,0.7v9.2c0,0.3,0.2,0.6,0.4,0.7l51.4,29.7c2.9,1.7,6.5,1.7,9.4,0l66.2-38.2
	c1.8-1,4.2,0.2,4.2,2.2v12.1v4.1v11.3v10.8v7.6c0,1.5-0.8,3-2.2,3.7l-68.2,39.2c-2.9,1.7-6.5,1.7-9.4,0l-68.2-39.4
	c-1.4-0.8-2.2-2.2-2.2-3.7v-16c0-1,1.1-1.6,2.1-1.1l68.3,39.3c2.9,1.7,6.5,1.7,9.4,0l51.4-29.7c0.2-0.2,0.4-0.4,0.4-0.7v-9.2
	c0-0.7-0.7-1.1-1.4-0.7l-50.5,29.1c-2.9,1.7-6.5,1.7-9.4,0l-68-39.2c-1.5-0.8-2.4-2.4-2.4-4.1v-4.9v-13.2v-11.3v-1.7v-19.1
	l35.8-20.7c7.3-4.2,16.5,0.8,16.5,8.9v0.2c0,1.2-0.7,2.4-1.8,3l-32.5,19l52.4,30.3c2.9,1.7,6.5,1.7,9.4,0l52.4-30.3l-32.5-18.8
	c-1.1-0.6-1.8-1.8-1.8-3v-0.2c0-8.1,9.2-13.2,16.5-8.9l35.8,20.7l0.1,13.2V178.6z"/>
</svg>
