<?xml version="1.0" encoding="utf-8"?>
<!-- Generator: Adobe Illustrator 25.3.1, SVG Export Plug-In . SVG Version: 6.00 Build 0)  -->
<svg version="1.1" id="Layer_1" xmlns="http://www.w3.org/2000/svg" xmlns:xlink="http://www.w3.org/1999/xlink" x="0px" y="0px"
	 viewBox="0 0 177.9 190.5" style="enable-background:new 0 0 177.9 190.5;" xml:space="preserve">
<style type="text/css">
	.st0{fill:#ECECEC;}
	.st1{fill:#FF735D;}
	.st2{fill:#FFFFFF;}
	.st3{fill:#E1E1E1;}
	.st4{fill-rule:evenodd;clip-rule:evenodd;fill:#ECECEC;}
</style>
<g id="XMLID_7_">
	<path class="st0" d="M14.8,141.5c1.5,1.5,3.5,2.6,5.8,3.1c7.4,1.6,13-3.8,14-9.5c0.9-0.4,1.7-1,2.5-1.6c-0.8,0.2-1.6,0.2-2.4,0.1
		c0.9-0.3,1.7-1,2.2-1.8c-0.9,0.3-1.8,0.4-2.8,0.4c-0.6-0.9-1.5-1.7-2.7-1.9c-2.6-0.6-5,1.4-5,4.1c-3.3-0.9-5.9-3.1-7.4-6
		c-1.4,1.6-1.4,4,0.1,5.6c-0.7-0.2-1.2-0.5-1.7-0.9c-0.4,1.8,0.5,3.9,2.4,4.7c-0.6,0-1.2-0.1-1.8-0.3c0.2,1.7,1.4,3.2,3.1,3.6
		C19.1,142.1,16.9,142.2,14.8,141.5z"/>
</g>
<g>
	<g>
		<path class="st0" d="M40.8,121.6l-1.5-2.1l0.5-4.7c0.3-2.3-1.2-4.4-3.4-4.9l0.2-2l-1.2-0.1l-0.2,1.9c-2.3,0-4.3,1.7-4.5,4.1
			l-0.5,4.4l-1.9,2l4.7,0.5c0.1,0.5,0.5,1,0.9,1.2c0.6,0.4,1.5,0.3,2.1-0.1c0.2-0.2,0.4-0.4,0.6-0.7L40.8,121.6z"/>
	</g>
</g>
<g>
	<g>
		<path class="st0" d="M103,143.4l-1.5-2.1l0.5-4.7c0.3-2.3-1.2-4.4-3.4-4.9l0.2-2l-1.2-0.1l-0.2,1.9c-2.3,0-4.3,1.7-4.5,4.1
			l-0.5,4.4l-1.9,2l4.7,0.5c0.1,0.5,0.5,1,0.9,1.2c0.6,0.4,1.5,0.3,2.1-0.1c0.2-0.2,0.4-0.4,0.6-0.7L103,143.4z"/>
	</g>
</g>
<g>
	<g>
		<g>
			<path class="st0" d="M40.6,26.4L9,32.7c-1.6,0.3-2.6,1.9-2.3,3.6l4.8,23.9c0.3,1.7,1.9,2.8,3.5,2.4l11.5-2.3
				c1.5,1.5,3.9,3.8,5.2,5c0.4,0.4,1.1,0.2,1.3-0.3l2.1-6.4l11.5-2.3c1.6-0.3,2.6-1.9,2.3-3.6l-4.8-23.9
				C43.7,27.2,42.2,26.1,40.6,26.4z"/>
		</g>
	</g>
	<g>
		<g>
			<ellipse transform="matrix(0.9807 -0.1956 0.1956 0.9807 -4.7178 8.6795)" class="st1" cx="41.6" cy="28.2" rx="7.9" ry="8.3"/>
		</g>
		<g>
			<path class="st2" d="M39.9,26.3l0.9,4.6l-1,0.2l-0.7-3.7l-0.9,0.2L38,26.7L39.9,26.3z"/>
			<path class="st2" d="M45,28.6c0.2,0.9-0.5,1.5-1.6,1.8c-1.1,0.2-1.9-0.2-2.1-1c-0.1-0.5,0.1-0.9,0.4-1.2
				c-0.4-0.1-0.6-0.4-0.7-0.8c-0.2-0.8,0.4-1.4,1.4-1.6c1-0.2,1.8,0.2,2,1c0.1,0.4,0,0.8-0.3,1C44.6,27.8,44.9,28.2,45,28.6z
				 M43.9,28.8c-0.1-0.4-0.4-0.6-1-0.5c-0.5,0.1-0.8,0.4-0.7,0.8s0.4,0.6,0.9,0.5C43.8,29.5,44,29.2,43.9,28.8z M42.1,27.2
				c0.1,0.3,0.4,0.5,0.8,0.4c0.4-0.1,0.6-0.4,0.6-0.7c-0.1-0.4-0.4-0.5-0.8-0.4C42.2,26.6,42,26.8,42.1,27.2z"/>
		</g>
	</g>
</g>
<g>
	<g>
		<g>
			<path class="st0" d="M53.2,73.2l-17,4c-1.2,0.3-1.9,1.4-1.6,2.6l2.9,12.1c0.3,1.2,1.4,1.9,2.6,1.6l6.1-1.4c0.9,0.8,2.3,2,3,2.6
				c0.3,0.2,0.7,0.1,0.8-0.2l1.1-3.6l6.1-1.4c1.2-0.3,1.9-1.4,1.6-2.6l-2.9-12.1C55.5,73.6,54.3,72.9,53.2,73.2z"/>
		</g>
	</g>
	<g>
		<g>
			<g>
				<g>
					<g>
						
							<rect x="41.5" y="79.9" transform="matrix(0.9738 -0.2275 0.2275 0.9738 -17.7265 12.7678)" class="st2" width="10" height="6.8"/>
					</g>
				</g>
			</g>
			<g>
				<g>
					<g>
						<g>
							<g>
								<path class="st3" d="M50.7,78.9c0,0,0,0-0.1,0.1c-0.1,0.1-0.1,0.2-0.2,0.3c-0.2,0.3-0.5,0.6-0.8,1.1
									c-0.7,0.9-1.7,2.2-2.7,3.6l0,0l0,0c0,0-0.1,0-0.1,0c-1.6-0.8-3.1-1.5-4.1-2c-0.5-0.3-0.9-0.5-1.2-0.6
									c-0.1-0.1-0.3-0.1-0.3-0.2c-0.1,0-0.1-0.1-0.1-0.1c0,0,0,0,0.1,0c0.1,0,0.2,0.1,0.3,0.2c0.3,0.1,0.7,0.3,1.3,0.6
									c1.1,0.5,2.5,1.2,4.1,2c0,0,0.1,0,0.1,0l-0.1,0c1.1-1.4,2-2.7,2.7-3.6c0.3-0.5,0.6-0.8,0.8-1.1
									C50.5,79.2,50.6,79.1,50.7,78.9C50.7,79,50.7,78.9,50.7,78.9z"/>
							</g>
						</g>
					</g>
				</g>
			</g>
			<g>
				<g>
					<g>
						<g>
							<path class="st3" d="M42.5,87.8c0,0,0.5-1.1,1.2-2.4c0.7-1.3,1.2-2.4,1.3-2.4c0,0-0.5,1.1-1.2,2.4
								C43,86.8,42.5,87.8,42.5,87.8z"/>
						</g>
					</g>
				</g>
			</g>
			<g>
				<g>
					<g>
						<g>
							<path class="st3" d="M48.1,82.2c0,0,1,0.7,2.1,1.6c1.1,0.9,2.1,1.7,2,1.7c0,0-1-0.7-2.1-1.6C49,83,48.1,82.2,48.1,82.2z"/>
						</g>
					</g>
				</g>
			</g>
		</g>
	</g>
	<g>
		<circle class="st1" cx="54.4" cy="73.3" r="5.8"/>
	</g>
	<g>
		<path class="st2" d="M53.1,72l0.7,2.9l-0.7,0.2l-0.6-2.4L52,72.9l-0.1-0.5L53.1,72z"/>
		<path class="st2" d="M53.9,73.4c-0.2-1,0.2-1.6,0.9-1.8c0.7-0.2,1.4,0.3,1.6,1.2c0.2,1-0.2,1.6-0.9,1.8
			C54.8,74.8,54.2,74.4,53.9,73.4z M55.8,72.9c-0.2-0.7-0.5-0.9-0.8-0.8c-0.3,0.1-0.5,0.4-0.3,1.1c0.2,0.7,0.5,0.9,0.8,0.8
			C55.8,73.9,55.9,73.6,55.8,72.9z"/>
	</g>
</g>
<g>
	<g>
		<g>
			<path class="st0" d="M148.2,16.4l-17,4c-1.2,0.3-1.9,1.4-1.6,2.6l2.9,12.1c0.3,1.2,1.4,1.9,2.6,1.6l6.1-1.4c0.9,0.8,2.3,2,3,2.6
				c0.3,0.2,0.7,0.1,0.8-0.2l1.1-3.6l6.1-1.4c1.2-0.3,1.9-1.4,1.6-2.6L150.8,18C150.6,16.9,149.4,16.2,148.2,16.4z"/>
		</g>
	</g>
	<g>
		<g>
			<g>
				<g>
					<g>
						
							<rect x="136.6" y="23.2" transform="matrix(0.9738 -0.2275 0.2275 0.9738 -2.3277 32.9075)" class="st2" width="10" height="6.8"/>
					</g>
				</g>
			</g>
			<g>
				<g>
					<g>
						<g>
							<g>
								<path class="st3" d="M145.8,22.2c0,0,0,0-0.1,0.1c-0.1,0.1-0.1,0.2-0.2,0.3c-0.2,0.3-0.5,0.6-0.8,1.1
									c-0.7,0.9-1.7,2.2-2.7,3.6l0,0l0,0c0,0-0.1,0-0.1,0c-1.6-0.8-3.1-1.5-4.1-2c-0.5-0.3-0.9-0.5-1.2-0.6
									c-0.1-0.1-0.3-0.1-0.3-0.2c-0.1,0-0.1-0.1-0.1-0.1c0,0,0,0,0.1,0c0.1,0,0.2,0.1,0.3,0.2c0.3,0.1,0.7,0.3,1.3,0.6
									c1.1,0.5,2.5,1.2,4.1,2c0,0,0.1,0,0.1,0l-0.1,0c1.1-1.4,2-2.7,2.7-3.6c0.3-0.5,0.6-0.8,0.8-1.1
									C145.6,22.5,145.6,22.4,145.8,22.2C145.8,22.2,145.8,22.2,145.8,22.2z"/>
							</g>
						</g>
					</g>
				</g>
			</g>
			<g>
				<g>
					<g>
						<g>
							<path class="st3" d="M137.5,31.1c0,0,0.5-1.1,1.2-2.4c0.7-1.3,1.2-2.4,1.3-2.4c0,0-0.5,1.1-1.2,2.4
								C138.1,30,137.6,31.1,137.5,31.1z"/>
						</g>
					</g>
				</g>
			</g>
			<g>
				<g>
					<g>
						<g>
							<path class="st3" d="M143.2,25.5c0,0,1,0.7,2.1,1.6c1.1,0.9,2.1,1.7,2,1.7c0,0-1-0.7-2.1-1.6
								C144.1,26.2,143.2,25.5,143.2,25.5z"/>
						</g>
					</g>
				</g>
			</g>
		</g>
	</g>
	<g>
		<circle class="st1" cx="149.5" cy="16.6" r="5.8"/>
	</g>
	<g>
		<path class="st2" d="M148.2,15.3l0.7,2.9l-0.7,0.2l-0.6-2.4l-0.6,0.1l-0.1-0.5L148.2,15.3z"/>
		<path class="st2" d="M149,16.6c-0.2-1,0.2-1.6,0.9-1.8c0.7-0.2,1.4,0.3,1.6,1.2c0.2,1-0.2,1.6-0.9,1.8
			C149.9,18,149.3,17.6,149,16.6z M150.9,16.2c-0.2-0.7-0.5-0.9-0.8-0.8c-0.3,0.1-0.5,0.4-0.3,1.1c0.2,0.7,0.5,0.9,0.8,0.8
			C150.9,17.2,151,16.9,150.9,16.2z"/>
	</g>
</g>
<g>
	<g>
		<g>
			<path class="st0" d="M136,154.1l-7.9,1.9c-0.5,0.1-0.9,0.7-0.7,1.2l1.3,5.6c0.1,0.5,0.7,0.9,1.2,0.7l2.8-0.7
				c0.4,0.4,1.1,0.9,1.4,1.2c0.1,0.1,0.3,0,0.3-0.1l0.5-1.7l2.8-0.7c0.5-0.1,0.9-0.7,0.7-1.2l-1.3-5.6
				C137,154.3,136.5,154,136,154.1z"/>
		</g>
	</g>
	<g>
		<g>
			<g>
				<g>
					<g>
						
							<rect x="130.6" y="157.2" transform="matrix(0.9738 -0.2275 0.2275 0.9738 -32.6267 34.3938)" class="st2" width="4.6" height="3.1"/>
					</g>
				</g>
			</g>
			<g>
				<g>
					<g>
						<g>
							<g>
								<path class="st3" d="M134.8,156.7C134.8,156.7,134.8,156.8,134.8,156.7c-0.1,0.1-0.1,0.1-0.1,0.2c-0.1,0.1-0.2,0.3-0.4,0.5
									c-0.3,0.4-0.8,1-1.3,1.7l0,0l0,0c0,0,0,0,0,0c-0.7-0.4-1.4-0.7-1.9-0.9c-0.2-0.1-0.4-0.2-0.6-0.3c-0.1,0-0.1-0.1-0.2-0.1
									c0,0-0.1,0-0.1,0c0,0,0,0,0.1,0c0,0,0.1,0,0.2,0.1c0.1,0.1,0.3,0.2,0.6,0.3c0.5,0.2,1.2,0.6,1.9,0.9c0,0,0,0,0,0l0,0
									c0.5-0.7,0.9-1.2,1.3-1.7c0.2-0.2,0.3-0.4,0.4-0.5C134.7,156.9,134.8,156.8,134.8,156.7
									C134.8,156.8,134.8,156.7,134.8,156.7z"/>
							</g>
						</g>
					</g>
				</g>
			</g>
			<g>
				<g>
					<g>
						<g>
							<path class="st3" d="M131,160.8c0,0,0.2-0.5,0.5-1.1c0.3-0.6,0.6-1.1,0.6-1.1c0,0-0.2,0.5-0.5,1.1
								C131.3,160.4,131,160.8,131,160.8z"/>
						</g>
					</g>
				</g>
			</g>
			<g>
				<g>
					<g>
						<g>
							<path class="st3" d="M133.6,158.3c0,0,0.4,0.3,1,0.8c0.5,0.4,0.9,0.8,0.9,0.8c0,0-0.4-0.3-1-0.8
								C134.1,158.6,133.6,158.3,133.6,158.3z"/>
						</g>
					</g>
				</g>
			</g>
		</g>
	</g>
	<g>
		<circle class="st1" cx="136.6" cy="154.1" r="2.7"/>
	</g>
	<g>
		<path class="st2" d="M135.9,153.5l0.3,1.4L136,155l-0.3-1.1l-0.3,0.1l-0.1-0.3L135.9,153.5z"/>
		<path class="st2" d="M136.3,154.2c-0.1-0.4,0.1-0.8,0.4-0.8c0.3-0.1,0.6,0.1,0.7,0.6c0.1,0.4-0.1,0.8-0.4,0.8
			C136.8,154.8,136.4,154.6,136.3,154.2z M137.2,154c-0.1-0.3-0.2-0.4-0.4-0.4c-0.2,0-0.2,0.2-0.2,0.5s0.2,0.4,0.4,0.4
			C137.2,154.4,137.3,154.3,137.2,154z"/>
	</g>
</g>
<g>
	<g>
		<path class="st4" d="M29.7,90.2c-1.4-6.1-7.1-10-13.1-8.8c-5.9,1.2-9.7,6.9-8.7,12.9c0,0.2,0.1,0.3,0.1,0.5c0.4,2.1,1.4,4,2.7,5.5
			l-0.8,6.4l5.6-3.2c1.7,0.6,3.6,0.7,5.5,0.4c6-1.2,9.9-7.2,8.6-13.4C29.7,90.4,29.7,90.3,29.7,90.2z M20.7,102.1
			c-1.9,0.4-3.7,0.1-5.3-0.6l-3.3,1.9l0.4-3.7c-1.4-1.3-2.4-3.1-2.9-5.2c-0.1-0.3-0.1-0.6-0.1-0.9c-0.5-4.9,2.7-9.4,7.4-10.4
			c4.8-1,9.5,2.1,10.9,6.9c0.1,0.2,0.1,0.5,0.2,0.7C29,96,25.8,101.1,20.7,102.1z"/>
	</g>
	<g>
		<path class="st4" d="M24.3,93.9c-0.3-0.1-1.7-0.5-2-0.5c-0.3,0-0.5-0.1-0.6,0.3c-0.1,0.3-0.5,1-0.6,1.2c-0.1,0.2-0.3,0.3-0.6,0.2
			c-0.3-0.1-1.2-0.2-2.4-0.9c-0.9-0.6-1.7-1.4-1.9-1.6c-0.2-0.2-0.1-0.4,0-0.6c0.1-0.2,0.2-0.4,0.3-0.6c0-0.1,0-0.1,0.1-0.2
			c0-0.1,0.1-0.2,0.1-0.4c0.1-0.2,0-0.4-0.1-0.5c-0.1-0.1-0.9-1.4-1.2-1.9c-0.3-0.5-0.5-0.4-0.7-0.3c-0.2,0-0.3,0-0.5,0.1
			c-0.2,0-0.5,0.2-0.6,0.5c-0.2,0.3-0.7,1.1-0.5,2.5c0.1,0.3,0.2,0.6,0.3,0.9c0.5,0.9,1.2,1.6,1.3,1.7c0.2,0.2,2.5,2.7,5.4,3.3
			c2.9,0.6,2.9,0.2,3.3,0c0.5-0.1,1.4-1,1.5-1.7c0.1-0.7,0-1.2-0.1-1.3C24.8,94,24.6,94,24.3,93.9z"/>
	</g>
</g>
<g>
	<g>
		<path class="st4" d="M116.8,13c-1.2-5.2-6.1-8.6-11.2-7.5c-5,1-8.3,5.9-7.5,11.1c0,0.1,0,0.3,0.1,0.4c0.4,1.8,1.2,3.4,2.3,4.7
			l-0.7,5.5l4.8-2.7c1.5,0.5,3.1,0.6,4.8,0.3c5.2-1,8.5-6.2,7.4-11.5C116.8,13.1,116.8,13,116.8,13z M109.1,23.2
			c-1.6,0.3-3.2,0.1-4.6-0.5l-2.8,1.6l0.4-3.2c-1.2-1.2-2.1-2.7-2.4-4.5c-0.1-0.3-0.1-0.5-0.1-0.8c-0.4-4.2,2.3-8.1,6.4-8.9
			c4.1-0.8,8.2,1.8,9.3,5.9c0.1,0.2,0.1,0.4,0.2,0.6C116.2,18,113.4,22.3,109.1,23.2z"/>
	</g>
	<g>
		<path class="st4" d="M112.2,16.2c-0.3-0.1-1.5-0.4-1.7-0.5c-0.2,0-0.4,0-0.5,0.2c-0.1,0.3-0.4,0.9-0.5,1.1
			c-0.1,0.2-0.2,0.2-0.5,0.2c-0.3-0.1-1-0.2-2.1-0.8c-0.8-0.5-1.4-1.2-1.6-1.4c-0.2-0.2-0.1-0.4,0-0.5c0.1-0.1,0.2-0.3,0.3-0.5
			c0,0,0-0.1,0.1-0.1c0-0.1,0.1-0.2,0.1-0.3c0-0.2,0-0.3-0.1-0.4c-0.1-0.1-0.8-1.2-1.1-1.6c-0.3-0.4-0.5-0.3-0.6-0.3
			c-0.1,0-0.3,0-0.4,0.1c-0.2,0-0.4,0.1-0.6,0.4c-0.2,0.3-0.6,1-0.4,2.1c0.1,0.3,0.2,0.5,0.3,0.8c0.4,0.8,1,1.4,1.1,1.5
			c0.1,0.1,2.1,2.3,4.6,2.8c2.5,0.5,2.5,0.2,2.9,0c0.4-0.1,1.2-0.8,1.3-1.4c0.1-0.6,0-1.1-0.1-1.2C112.6,16.3,112.4,16.2,112.2,16.2
			z"/>
	</g>
</g>
<g>
	<g>
		<path class="st4" d="M27.6,17.1c-0.6-2.7-3.2-4.4-5.8-3.9c-2.6,0.5-4.3,3.1-3.9,5.8c0,0.1,0,0.1,0,0.2c0.2,0.9,0.6,1.8,1.2,2.5
			l-0.3,2.9l2.5-1.4c0.8,0.3,1.6,0.3,2.5,0.2c2.7-0.5,4.4-3.2,3.8-6C27.6,17.1,27.6,17.1,27.6,17.1z M23.6,22.4
			c-0.8,0.2-1.6,0.1-2.4-0.3l-1.5,0.8l0.2-1.7c-0.6-0.6-1.1-1.4-1.3-2.3c0-0.1,0-0.3-0.1-0.4c-0.2-2.2,1.2-4.2,3.3-4.6
			c2.1-0.4,4.2,0.9,4.8,3.1c0,0.1,0.1,0.2,0.1,0.3C27.3,19.7,25.9,21.9,23.6,22.4z"/>
	</g>
	<g>
		<path class="st4" d="M25.2,18.7c-0.1,0-0.8-0.2-0.9-0.2c-0.1,0-0.2,0-0.3,0.1c-0.1,0.1-0.2,0.5-0.3,0.6c-0.1,0.1-0.1,0.1-0.3,0.1
			c-0.1,0-0.5-0.1-1.1-0.4c-0.4-0.3-0.7-0.6-0.8-0.7c-0.1-0.1,0-0.2,0-0.3c0-0.1,0.1-0.2,0.1-0.3c0,0,0,0,0-0.1c0-0.1,0-0.1,0-0.2
			c0-0.1,0-0.2-0.1-0.2c0-0.1-0.4-0.6-0.5-0.8c-0.1-0.2-0.2-0.2-0.3-0.1c-0.1,0-0.1,0-0.2,0c-0.1,0-0.2,0.1-0.3,0.2
			c-0.1,0.1-0.3,0.5-0.2,1.1c0,0.1,0.1,0.3,0.1,0.4c0.2,0.4,0.5,0.7,0.6,0.8c0.1,0.1,1.1,1.2,2.4,1.5c1.3,0.2,1.3,0.1,1.5,0
			c0.2-0.1,0.6-0.4,0.7-0.7c0-0.3,0-0.6,0-0.6C25.4,18.8,25.3,18.8,25.2,18.7z"/>
	</g>
</g>
<g>
	<g>
		<path class="st4" d="M44.1,151.6c-0.7-3.2-3.8-5.4-7-4.7c-3.1,0.6-5.2,3.7-4.7,6.9c0,0.1,0,0.2,0,0.3c0.2,1.1,0.7,2.1,1.5,3
			l-0.4,3.4l3-1.7c0.9,0.3,1.9,0.4,3,0.2c3.2-0.6,5.3-3.9,4.6-7.2C44.1,151.7,44.1,151.6,44.1,151.6z M39.3,157.9
			c-1,0.2-2,0.1-2.9-0.3l-1.8,1l0.2-2c-0.8-0.7-1.3-1.7-1.5-2.8c0-0.2-0.1-0.3-0.1-0.5c-0.3-2.6,1.4-5,4-5.6
			c2.6-0.5,5.1,1.1,5.8,3.7c0,0.1,0.1,0.3,0.1,0.4C43.8,154.7,42,157.4,39.3,157.9z"/>
	</g>
	<g>
		<path class="st4" d="M41.2,153.6c-0.2,0-0.9-0.3-1.1-0.3c-0.1,0-0.2,0-0.3,0.1c-0.1,0.2-0.3,0.6-0.3,0.7c-0.1,0.1-0.1,0.1-0.3,0.1
			c-0.2,0-0.6-0.1-1.3-0.5c-0.5-0.3-0.9-0.7-1-0.9c-0.1-0.1-0.1-0.2,0-0.3c0.1-0.1,0.1-0.2,0.2-0.3c0,0,0-0.1,0-0.1
			c0-0.1,0-0.1,0.1-0.2c0-0.1,0-0.2-0.1-0.3c-0.1-0.1-0.5-0.7-0.7-1c-0.2-0.3-0.3-0.2-0.4-0.2c-0.1,0-0.2,0-0.3,0
			c-0.1,0-0.2,0.1-0.3,0.3c-0.1,0.2-0.4,0.6-0.3,1.3c0,0.2,0.1,0.3,0.2,0.5c0.2,0.5,0.6,0.9,0.7,0.9c0.1,0.1,1.3,1.4,2.9,1.7
			c1.6,0.3,1.5,0.1,1.8,0c0.3-0.1,0.8-0.5,0.8-0.9c0.1-0.4,0-0.7-0.1-0.7C41.5,153.6,41.4,153.6,41.2,153.6z"/>
	</g>
</g>
<g>
	<g>
		<g>
			<path class="st2" d="M24.3,50.7c0,0,0.6,2.2-0.6,4c0,0,3.3-0.7,3.5-4.2c0,0,8.9-0.2,9.1-6.2c0.2-6.4-6.4-7.3-9.2-6.9
				c-4.8,0.7-8.3,3.8-7.9,8.3C19.6,50.3,24.3,50.7,24.3,50.7z"/>
		</g>
	</g>
</g>
<g>
	<g>
		<g>
			<path class="st0" d="M159.4,112.1l-31.6,6.3c-1.6,0.3-2.6,1.9-2.3,3.6l4.8,23.9c0.3,1.7,1.9,2.8,3.5,2.4l11.5-2.3
				c1.5,1.5,3.9,3.8,5.2,5c0.4,0.4,1.1,0.2,1.3-0.3l2.1-6.4l11.5-2.3c1.6-0.3,2.6-1.9,2.3-3.6l-4.8-23.9
				C162.6,112.9,161,111.8,159.4,112.1z"/>
		</g>
	</g>
	<g>
		<g>
			
				<ellipse transform="matrix(0.9807 -0.1956 0.1956 0.9807 -19.1754 33.5774)" class="st1" cx="160.4" cy="113.9" rx="7.9" ry="8.3"/>
		</g>
		<g>
			<path class="st2" d="M158.7,111.9l0.9,4.6l-1,0.2l-0.7-3.7l-0.9,0.2l-0.2-0.8L158.7,111.9z"/>
			<path class="st2" d="M163.8,114.3c0.2,0.9-0.5,1.5-1.6,1.8c-1.1,0.2-1.9-0.2-2.1-1c-0.1-0.5,0.1-0.9,0.4-1.2
				c-0.4-0.1-0.6-0.4-0.7-0.8c-0.2-0.8,0.4-1.4,1.4-1.6c1-0.2,1.8,0.2,2,1c0.1,0.4,0,0.8-0.3,1C163.4,113.5,163.7,113.8,163.8,114.3
				z M162.8,114.5c-0.1-0.4-0.4-0.6-1-0.5c-0.5,0.1-0.8,0.4-0.7,0.8c0.1,0.4,0.4,0.6,0.9,0.5C162.6,115.2,162.9,114.9,162.8,114.5z
				 M160.9,112.8c0.1,0.3,0.4,0.5,0.8,0.4c0.4-0.1,0.6-0.4,0.6-0.7c-0.1-0.4-0.4-0.5-0.8-0.4C161,112.2,160.8,112.5,160.9,112.8z"/>
		</g>
	</g>
</g>
<g>
	<g>
		<g>
			<path class="st2" d="M143.1,136.4c0,0,0.6,2.2-0.6,4c0,0,3.3-0.7,3.5-4.2c0,0,8.9-0.2,9.1-6.2c0.2-6.4-6.4-7.3-9.2-6.9
				c-4.8,0.7-8.3,3.8-7.9,8.3C138.5,135.9,143.1,136.4,143.1,136.4z"/>
		</g>
	</g>
</g>
<g>
	<g>
		<g>
			<path class="st0" d="M99.3,153l-18.6,3.7c-0.9,0.2-1.5,1.1-1.4,2.1l2.8,14.1c0.2,1,1.1,1.6,2.1,1.4l6.8-1.3
				c0.9,0.9,2.3,2.2,3.1,3c0.3,0.2,0.7,0.1,0.8-0.2l1.2-3.8l6.7-1.3c0.9-0.2,1.5-1.1,1.4-2.1l-2.8-14.1
				C101.1,153.4,100.2,152.8,99.3,153z"/>
		</g>
	</g>
	<g>
		<g>
			<ellipse transform="matrix(0.9807 -0.1956 0.1956 0.9807 -28.1977 22.508)" class="st1" cx="99.9" cy="154" rx="4.7" ry="4.9"/>
		</g>
		<g>
			<path class="st2" d="M98.9,152.9l0.5,2.7l-0.6,0.1l-0.4-2.2l-0.5,0.1l-0.1-0.5L98.9,152.9z"/>
			<path class="st2" d="M101.9,154.3c0.1,0.5-0.3,0.9-0.9,1c-0.7,0.1-1.1-0.1-1.2-0.6c-0.1-0.3,0-0.5,0.3-0.7
				c-0.2-0.1-0.4-0.3-0.4-0.5c-0.1-0.5,0.3-0.8,0.8-1c0.6-0.1,1.1,0.1,1.1,0.6c0,0.2,0,0.5-0.2,0.6
				C101.6,153.8,101.8,154,101.9,154.3z M101.3,154.4c0-0.2-0.3-0.3-0.6-0.3c-0.3,0.1-0.4,0.2-0.4,0.5c0,0.2,0.3,0.3,0.6,0.3
				C101.1,154.8,101.3,154.6,101.3,154.4z M100.1,153.4c0,0.2,0.2,0.3,0.5,0.2c0.2,0,0.4-0.2,0.3-0.4c0-0.2-0.2-0.3-0.5-0.3
				C100.2,153,100.1,153.2,100.1,153.4z"/>
		</g>
	</g>
</g>
<g>
	<g>
		<g>
			<path class="st2" d="M89.7,167.2c0,0,0.4,1.3-0.4,2.3c0,0,1.9-0.4,2.1-2.4c0,0,5.2-0.1,5.4-3.7c0.1-3.8-3.8-4.3-5.4-4.1
				c-2.8,0.4-4.9,2.2-4.7,4.9C87,167,89.7,167.2,89.7,167.2z"/>
		</g>
	</g>
</g>
<g>
	<g>
		<g>
			<g>
				<g>
					<polygon class="st0" points="86.3,149.5 53.1,157.9 48.6,137.1 81.9,128.7 					"/>
				</g>
			</g>
		</g>
		<g>
			<g>
				<g>
					<g>
						<g>
							<path class="st2" d="M82,129c0,0-0.1,0.1-0.3,0.4c-0.2,0.2-0.4,0.6-0.8,1c-0.7,0.9-1.7,2.1-2.9,3.6c-2.5,3-5.8,7.2-9.6,11.8
								l-0.1,0.1l-0.1,0c-0.1,0-0.2-0.1-0.3-0.1c-5.3-2.3-10.2-4.3-13.7-5.8c-1.7-0.7-3.1-1.4-4.1-1.8c-0.5-0.2-0.8-0.4-1.1-0.5
								c-0.3-0.1-0.4-0.2-0.4-0.2c0,0,0.1,0,0.4,0.1c0.3,0.1,0.7,0.3,1.1,0.5c1,0.4,2.4,1,4.2,1.7c3.5,1.5,8.4,3.5,13.8,5.7
								c0.1,0,0.2,0.1,0.3,0.1l-0.2,0.1c3.8-4.6,7.1-8.7,9.6-11.8c1.2-1.5,2.2-2.7,2.9-3.5c0.3-0.4,0.6-0.7,0.8-1
								C81.9,129.1,82,129,82,129z"/>
						</g>
					</g>
				</g>
			</g>
		</g>
		<g>
			<g>
				<g>
					<g>
						<path class="st2" d="M53.2,158.1c-0.1,0,1.8-3.5,4.2-7.8c2.4-4.3,4.4-7.7,4.5-7.6c0.1,0-1.8,3.5-4.2,7.8
							C55.3,154.7,53.3,158.1,53.2,158.1z"/>
					</g>
				</g>
			</g>
		</g>
		<g>
			<g>
				<g>
					<g>
						<path class="st2" d="M72.9,139.7c0.1-0.1,3.1,2.1,6.9,4.9c3.7,2.8,6.7,5.1,6.7,5.1c-0.1,0.1-3.1-2.1-6.9-4.9
							C75.9,142,72.9,139.7,72.9,139.7z"/>
					</g>
				</g>
			</g>
		</g>
	</g>
</g>
<g>
	<g>
		<g>
			<path class="st0" d="M64.1,20.2c0,0,0.4,1.5-0.4,2.7c0,0,2.2-0.5,2.4-2.8c0,0,6-0.1,6.1-4.2c0.2-4.3-4.3-4.9-6.2-4.6
				c-3.2,0.5-5.6,2.6-5.3,5.6C60.9,19.9,64.1,20.2,64.1,20.2z"/>
		</g>
	</g>
</g>
<g>
	<g>
		<g>
			<path class="st0" d="M112.6,152.9c0,0,0.4,1.5-0.4,2.7c0,0,2.2-0.5,2.4-2.8c0,0,6-0.1,6.1-4.2c0.2-4.3-4.3-4.9-6.2-4.6
				c-3.2,0.5-5.6,2.6-5.3,5.6C109.5,152.6,112.6,152.9,112.6,152.9z"/>
		</g>
	</g>
</g>
</svg>
